# xmcd CD database file
# Copyright (C) 1997 Ti Kan
# 
# Track frame offsets:
#     150
#     18927
#     29939
#     43498
#     58398
#     76575
#     86537
#     99056
#     120481
#     146975
#     163057
#     189584
#     211129
#     228411
#     245853
#     262140
#     279347
#     294594
#     309868
# 
# Disc length: 4418 seconds
# 
# Revision: 1
# Processed by: cddbd v1.4b41PL1 Copyright (c) Steve Scherf et al.
# Submitted via: DiscPlay 4.0.3
# 
DISCID=16114013
DTITLE=Dr. feelgood - 25 Yeras of Dr. Feelgood
DYEAR=1900
DGENRE=
TTITLE0=Dangerous
TTITLE1=Mad man blues
TTITLE2=Dimples
TTITLE3=Hunting shooting fishing
TTITLE4=See you later alligator
TTITLE5=King for a day
TTITLE6=Baby Jane
TTITLE7=Sugar turns to alcohol
TTITLE8=Down by the Jetty blues
TTITLE9=Double crossed
TTITLE10=Wolfman callin'
TTITLE11=One step forward
TTITLE12=Roadrunner
TTITLE13=Down at the doctors
TTITLE14=Heart of the city
TTITLE15=World keeps turning
TTITLE16=Instinct to survive
TTITLE17=Going out west
TTITLE18=You got me
EXTD=
EXTT0=
EXTT1=
EXTT2=
EXTT3=
EXTT4=
EXTT5=
EXTT6=
EXTT7=
EXTT8=
EXTT9=
EXTT10=
EXTT11=
EXTT12=
EXTT13=
EXTT14=
EXTT15=
EXTT16=
EXTT17=
EXTT18=
PLAYORDER=
